<svg preserveAspectRatio="xMidYMid meet" data-bbox="28.5 20 143 160" viewBox="28.5 20 143 160" height="200" width="200" xmlns="http://www.w3.org/2000/svg" data-type="tint" role="presentation" aria-hidden="true" aria-label="">
    <g>
        <path d="M165.965 39.255v-5.189h-4.584V20h-7.734v14.066h-4.584v5.189h-5.535v11.084c-.47-.188-.936-.377-1.401-.565-4.807-1.961-9.777-3.987-19.57-3.987-9.798 0-14.77 2.026-19.578 3.987-4.793 1.954-9.32 3.798-18.623 3.798-9.298 0-13.823-1.844-18.613-3.798-2.729-1.114-5.553-2.255-9.27-3.029v-7.49h-5.535v-5.189h-4.584V20H38.62v14.066h-4.584v5.189H28.5v122.898h5.535v4.715h4.584V180h7.734v-13.132h4.584v-4.715h5.535v-13.312c3.233.718 5.714 1.727 8.32 2.79 4.804 1.961 9.773 3.987 19.563 3.987 9.797 0 14.768-2.026 19.577-3.987 4.794-1.954 9.322-3.798 18.625-3.798 9.305 0 13.832 1.848 18.625 3.801.773.314 1.553.627 2.346.934v9.584h5.535v4.715h4.584V180h7.734v-13.132h4.584v-4.715h5.535V39.255h-5.535zM53.894 159.516h-5.535v4.715h-4.584v13.132h-2.578v-13.132h-4.584v-4.715h-5.535V41.892h5.535v-5.189h4.584V22.637h2.578v14.066h4.584v5.189h5.535v117.624zm88.243-10.333c-4.809-1.961-9.782-3.987-19.58-3.987s-14.77 2.026-19.578 3.987c-4.793 1.954-9.32 3.798-18.623 3.798-9.295 0-13.82-1.844-18.61-3.798-2.728-1.114-5.555-2.258-9.273-3.029V49.433c3.23.72 5.711 1.729 8.315 2.789 4.805 1.961 9.775 3.987 19.568 3.987 9.797 0 14.768-2.026 19.577-3.987 4.794-1.954 9.322-3.798 18.625-3.798 9.298 0 13.825 1.844 18.617 3.798.777.317 1.559.63 2.355.938v96.587c-.468-.187-.932-.375-1.393-.564zm26.785 10.333h-5.535v4.715h-4.584v13.132h-2.578v-13.132h-4.584v-4.715h-5.535V41.892h5.535v-5.189h4.584V22.637h2.578v14.066h4.584v5.189h5.535v117.624z" fill="#252424"></path>
    </g>
</svg>
